<?xml version="1.0" encoding="UTF-8" standalone="no"?>
<!DOCTYPE svg PUBLIC "-//W3C//DTD SVG 1.1//EN" "http://www.w3.org/Graphics/SVG/1.1/DTD/svg11.dtd">
<svg width="100%" height="100%" viewBox="0 0 642 229" version="1.1" xmlns="http://www.w3.org/2000/svg" xmlns:xlink="http://www.w3.org/1999/xlink" xml:space="preserve" xmlns:serif="http://www.serif.com/" style="fill-rule:evenodd;clip-rule:evenodd;stroke-linejoin:round;stroke-miterlimit:2;">
    <g transform="matrix(1,0,0,1,-217.547,-420.686)">
        <g transform="matrix(1,0,0,1,442.547,420.686)">
            <path d="M0,229L-221,229C-223.209,229 -225,227.209 -225,225L-225,4C-225,1.791 -223.209,0 -221,0L0,0C2.209,0 4,1.791 4,4L4,225C4,227.209 2.209,229 0,229" style="fill:rgb(230,166,83);fill-rule:nonzero;"/>
        </g>
        <g transform="matrix(1,0,0,1,408.599,474.154)">
            <path d="M0,122.558L-0.016,122.558L-0.016,24.783C-0.016,23.305 -1.214,22.107 -2.691,22.107L-15.319,22.107L-15.319,122.558L-137.794,122.558L-137.794,37.389L-39.556,37.389L-39.556,22.085L-137.794,22.085L-137.794,0.001L-0.337,0.001C-0.2,0.001 -0.088,-0.11 -0.088,-0.248L-0.088,-12.515C-0.088,-14.054 -1.337,-15.303 -2.876,-15.303L-150.585,-15.303C-151.991,-15.303 -153.132,-14.162 -153.132,-12.755L-153.132,-0.248C-153.132,-0.215 -153.109,-0.193 -153.098,-0.165L-153.098,134.95C-153.098,136.558 -151.969,137.861 -150.572,137.861L-3.258,137.861C-0.459,137.861 0.032,136.226 0.032,134.074L0,122.558Z" style="fill:rgb(0,66,131);fill-rule:nonzero;"/>
        </g>
        <g transform="matrix(1,0,0,1,295.159,531.326)">
            <rect x="0" y="0" width="15.303" height="45.608" style="fill:rgb(0,66,131);"/>
        </g>
        <g transform="matrix(1,0,0,1,324.59,531.326)">
            <rect x="0" y="0" width="15.303" height="45.608" style="fill:rgb(0,66,131);"/>
        </g>
        <g transform="matrix(1,0,0,1,353.667,531.326)">
            <rect x="0" y="0" width="15.303" height="45.608" style="fill:rgb(0,66,131);"/>
        </g>
        <g transform="matrix(1,0,0,1,805.369,495.841)">
            <path d="M0,0.899C0,3.597 0.03,5.546 0.061,6.056C0.09,6.686 0.15,7.586 0.36,7.855C0.689,8.335 1.739,8.875 3.809,8.875C6.207,8.875 7.976,8.455 9.565,7.135C11.274,5.726 11.813,3.448 11.813,0.809C11.813,-2.429 10.524,-4.528 9.355,-5.547C6.927,-7.706 4.048,-7.976 1.979,-7.976C1.439,-7.976 0.57,-7.916 0.36,-7.796C0.12,-7.706 0.03,-7.586 0.03,-7.287C0,-6.416 0,-4.318 0,-2.309L0,0.899ZM-3.538,-1.919C-3.538,-5.788 -3.538,-6.507 -3.567,-7.317C-3.628,-8.186 -3.867,-8.455 -4.707,-8.696C-4.917,-8.755 -5.367,-8.786 -5.757,-8.786C-6.026,-8.786 -6.206,-8.875 -6.206,-9.055C-6.206,-9.236 -5.996,-9.295 -5.606,-9.295C-4.228,-9.295 -2.549,-9.236 -1.799,-9.236C-0.989,-9.236 0.899,-9.295 2.489,-9.295C5.787,-9.295 10.225,-9.295 13.103,-6.387C14.422,-5.068 15.592,-2.939 15.592,0.089C15.592,3.297 14.212,5.726 12.713,7.196C11.514,8.395 8.726,10.194 3.868,10.194C2.908,10.194 1.77,10.104 0.72,10.045C-0.33,9.954 -1.289,9.894 -1.948,9.894C-2.249,9.894 -2.818,9.924 -3.448,9.924C-4.077,9.954 -4.737,9.984 -5.277,9.984C-5.606,9.984 -5.786,9.894 -5.786,9.714C-5.786,9.594 -5.696,9.444 -5.367,9.444C-4.978,9.444 -4.677,9.415 -4.437,9.354C-3.897,9.235 -3.748,8.754 -3.658,8.005C-3.538,6.925 -3.538,4.917 -3.538,2.578L-3.538,-1.919Z" style="fill:white;fill-rule:nonzero;"/>
        </g>
        <g transform="matrix(1,0,0,1,825.693,498.299)">
            <path d="M0,-4.378C0,-8.246 0,-8.966 -0.029,-9.775C-0.09,-10.645 -0.329,-10.914 -1.169,-11.154C-1.379,-11.214 -1.829,-11.244 -2.219,-11.244C-2.488,-11.244 -2.668,-11.334 -2.668,-11.514C-2.668,-11.694 -2.458,-11.754 -2.068,-11.754C-0.689,-11.754 0.989,-11.694 1.739,-11.694C2.579,-11.694 8.426,-11.664 8.936,-11.694C9.415,-11.724 9.835,-11.814 10.045,-11.844C10.194,-11.874 10.345,-11.964 10.465,-11.964C10.614,-11.964 10.645,-11.844 10.645,-11.724C10.645,-11.544 10.494,-11.244 10.435,-10.075C10.404,-9.805 10.345,-8.695 10.284,-8.396C10.255,-8.275 10.194,-7.976 9.984,-7.976C9.805,-7.976 9.774,-8.096 9.774,-8.306C9.774,-8.485 9.745,-8.936 9.595,-9.235C9.385,-9.685 9.175,-10.045 7.855,-10.165C7.406,-10.225 4.258,-10.285 3.718,-10.285C3.599,-10.285 3.538,-10.194 3.538,-10.045L3.538,-3.748C3.538,-3.599 3.568,-3.479 3.718,-3.479C4.318,-3.479 7.736,-3.479 8.336,-3.538C8.965,-3.599 9.355,-3.658 9.595,-3.928C9.805,-4.108 9.895,-4.258 10.015,-4.258C10.135,-4.258 10.225,-4.138 10.225,-3.988C10.225,-3.838 10.165,-3.419 10.015,-2.129C9.955,-1.619 9.895,-0.6 9.895,-0.42C9.895,-0.21 9.865,0.149 9.625,0.149C9.445,0.149 9.385,0.059 9.385,-0.061C9.355,-0.33 9.355,-0.66 9.295,-0.99C9.146,-1.5 8.815,-1.89 7.826,-1.98C7.347,-2.039 4.348,-2.1 3.688,-2.1C3.568,-2.1 3.538,-1.98 3.538,-1.829L3.538,0.21C3.538,1.079 3.509,3.238 3.538,3.987C3.599,5.726 4.408,6.116 7.106,6.116C7.796,6.116 8.905,6.086 9.595,5.786C10.255,5.486 10.555,4.947 10.734,3.897C10.794,3.628 10.854,3.508 11.034,3.508C11.244,3.508 11.274,3.838 11.274,4.107C11.274,4.677 11.064,6.416 10.914,6.926C10.734,7.586 10.494,7.586 9.505,7.586C7.526,7.586 5.937,7.556 4.647,7.495C3.358,7.466 2.369,7.435 1.59,7.435C1.289,7.435 0.72,7.466 0.09,7.466C-0.539,7.495 -1.199,7.525 -1.739,7.525C-2.068,7.525 -2.248,7.435 -2.248,7.256C-2.248,7.136 -2.158,6.985 -1.829,6.985C-1.439,6.985 -1.139,6.956 -0.899,6.895C-0.359,6.776 -0.21,6.296 -0.12,5.547C0,4.467 0,2.458 0,0.119L0,-4.378Z" style="fill:white;fill-rule:nonzero;"/>
        </g>
        <g transform="matrix(1,0,0,1,513.42,466.098)">
            <path d="M0,15.08C0,22.948 0,29.094 0.41,32.537C0.655,34.913 1.147,36.716 3.606,37.044C4.754,37.208 6.557,37.372 7.704,37.372C8.77,37.372 9.097,37.618 9.097,38.027C9.097,38.601 8.523,38.847 7.294,38.847C2.131,38.847 -3.032,38.601 -5.163,38.601C-7.294,38.601 -12.457,38.847 -15.571,38.847C-16.719,38.847 -17.292,38.683 -17.292,38.027C-17.292,37.618 -16.965,37.372 -16.063,37.372C-14.834,37.372 -13.851,37.208 -13.112,37.044C-11.474,36.716 -11.063,34.913 -10.736,32.537C-10.326,29.094 -10.326,22.948 -10.326,15.08L-10.326,0.656C-10.326,-11.801 -10.326,-14.096 -10.49,-16.719C-10.654,-19.505 -11.31,-20.816 -14.015,-21.39C-14.67,-21.554 -16.063,-21.636 -17.21,-21.636C-18.03,-21.636 -18.604,-21.8 -18.604,-22.292C-18.604,-22.947 -17.948,-23.111 -16.719,-23.111C-14.588,-23.111 -12.211,-23.029 -10.08,-23.029C-7.949,-22.947 -6.064,-22.865 -4.917,-22.865C-1.803,-22.865 14.834,-22.865 16.719,-22.947C18.276,-23.029 19.26,-23.029 20.079,-23.275C20.57,-23.439 20.98,-23.767 21.391,-23.767C21.718,-23.767 21.964,-23.439 21.964,-23.029C21.964,-22.456 21.555,-21.472 21.309,-19.341C21.227,-18.522 21.062,-13.686 20.898,-12.703C20.816,-12.047 20.652,-11.555 20.079,-11.555C19.506,-11.555 19.342,-11.965 19.26,-12.867C19.26,-13.523 19.26,-14.834 18.768,-15.981C18.194,-17.128 16.473,-18.358 13.358,-18.44L0.737,-18.686C0.246,-18.686 0,-18.44 0,-17.538L0,2.951C0,3.442 0.082,3.688 0.574,3.688L11.064,3.606C12.457,3.606 13.604,3.606 14.752,3.524C16.31,3.442 17.456,3.115 18.276,2.049C18.686,1.558 18.85,1.229 19.342,1.229C19.669,1.229 19.833,1.476 19.833,1.967C19.833,2.459 19.424,4.508 19.178,7.048C19.014,8.687 18.85,12.457 18.85,13.031C18.85,13.768 18.85,14.588 18.03,14.588C17.538,14.588 17.375,14.015 17.375,13.441C17.375,12.867 17.211,11.884 16.883,10.9C16.473,9.753 15.244,8.278 12.703,7.95C10.654,7.704 1.967,7.704 0.574,7.704C0.164,7.704 0,7.868 0,8.442L0,15.08Z" style="fill:white;fill-rule:nonzero;"/>
        </g>
        <g transform="matrix(1,0,0,1,548.745,484.374)">
            <path d="M0,-11.965C0,-22.537 0,-24.505 -0.082,-26.717C-0.246,-29.094 -0.901,-29.831 -3.196,-30.487C-3.77,-30.651 -4.999,-30.733 -6.064,-30.733C-6.803,-30.733 -7.294,-30.979 -7.294,-31.47C-7.294,-31.962 -6.721,-32.126 -5.655,-32.126C-1.885,-32.126 2.705,-31.962 4.754,-31.962C7.049,-31.962 23.029,-31.88 24.423,-31.962C25.734,-32.044 26.882,-32.29 27.455,-32.372C27.865,-32.454 28.274,-32.7 28.603,-32.7C29.013,-32.7 29.095,-32.372 29.095,-32.044C29.095,-31.552 28.685,-30.733 28.521,-27.537C28.438,-26.799 28.274,-23.767 28.11,-22.947C28.029,-22.619 27.865,-21.8 27.291,-21.8C26.8,-21.8 26.718,-22.128 26.718,-22.701C26.718,-23.193 26.636,-24.423 26.226,-25.242C25.652,-26.471 25.078,-27.455 21.473,-27.782C20.243,-27.946 11.638,-28.111 10.163,-28.111C9.835,-28.111 9.671,-27.864 9.671,-27.455L9.671,-10.244C9.671,-9.834 9.753,-9.507 10.163,-9.507C11.802,-9.507 21.145,-9.507 22.784,-9.671C24.505,-9.834 25.57,-9.998 26.226,-10.736C26.8,-11.228 27.045,-11.637 27.373,-11.637C27.701,-11.637 27.947,-11.31 27.947,-10.9C27.947,-10.49 27.783,-9.342 27.373,-5.819C27.209,-4.425 27.045,-1.639 27.045,-1.147C27.045,-0.573 26.964,0.41 26.308,0.41C25.816,0.41 25.652,0.164 25.652,-0.164C25.57,-0.902 25.57,-1.803 25.406,-2.704C24.996,-4.097 24.095,-5.163 21.391,-5.409C20.079,-5.573 11.884,-5.736 10.081,-5.736C9.753,-5.736 9.671,-5.409 9.671,-4.999L9.671,0.574C9.671,2.951 9.589,8.851 9.671,10.9C9.835,15.654 12.048,16.719 19.424,16.719C21.309,16.719 24.341,16.637 26.226,15.818C28.029,14.998 28.849,13.523 29.34,10.654C29.504,9.917 29.668,9.589 30.159,9.589C30.733,9.589 30.815,10.491 30.815,11.228C30.815,12.785 30.241,17.538 29.832,18.932C29.34,20.735 28.685,20.735 25.979,20.735C20.571,20.735 16.228,20.653 12.703,20.489C9.179,20.407 6.475,20.325 4.344,20.325C3.524,20.325 1.967,20.407 0.246,20.407C-1.475,20.489 -3.278,20.571 -4.753,20.571C-5.655,20.571 -6.146,20.325 -6.146,19.833C-6.146,19.506 -5.9,19.096 -4.999,19.096C-3.934,19.096 -3.114,19.014 -2.458,18.85C-0.983,18.522 -0.573,17.211 -0.327,15.162C0,12.211 0,6.721 0,0.328L0,-11.965Z" style="fill:white;fill-rule:nonzero;"/>
        </g>
        <g transform="matrix(1,0,0,1,601.445,479.375)">
            <path d="M0,-1.557C0,-0.819 0.164,-0.574 0.655,-0.328C2.213,0.164 4.344,0.328 6.146,0.328C9.015,0.328 9.998,0.082 11.228,-0.819C13.44,-2.376 15.899,-5.409 15.899,-11.145C15.899,-20.98 9.179,-23.521 4.917,-23.521C3.114,-23.521 1.394,-23.439 0.655,-23.275C0.164,-23.111 0,-22.865 0,-22.291L0,-1.557ZM-9.179,-6.966C-9.179,-17.538 -9.179,-19.505 -9.261,-21.718C-9.425,-24.095 -10.08,-24.832 -12.375,-25.488C-12.949,-25.652 -14.178,-25.734 -15.243,-25.734C-15.981,-25.734 -16.473,-25.979 -16.473,-26.471C-16.473,-26.963 -15.899,-27.127 -14.834,-27.127C-11.063,-27.127 -6.475,-26.963 -4.999,-26.963C-2.541,-26.963 4.016,-27.127 6.229,-27.127C10.818,-27.127 16.063,-26.717 19.915,-24.177C21.964,-22.783 24.996,-19.259 24.996,-14.588C24.996,-9.425 22.046,-4.835 14.998,0.82C21.391,8.688 26.472,14.998 30.815,19.341C34.831,23.358 37.371,23.685 38.519,23.931C39.257,24.095 39.666,24.095 40.24,24.095C40.813,24.095 41.142,24.505 41.142,24.833C41.142,25.406 40.649,25.57 39.748,25.57L32.864,25.57C28.849,25.57 26.881,25.16 24.996,24.177C21.882,22.62 19.178,19.341 15.162,13.933C12.293,10.163 9.261,5.491 8.359,4.426C7.949,4.016 7.54,3.934 7.048,3.934L0.573,3.77C0.246,3.77 0,3.934 0,4.344L0,5.327C0,11.802 0.082,17.211 0.41,20.161C0.655,22.21 0.983,23.521 3.196,23.849C4.262,24.013 5.818,24.095 6.721,24.095C7.294,24.095 7.622,24.505 7.622,24.833C7.622,25.324 7.048,25.57 6.146,25.57C1.967,25.57 -4.016,25.324 -5.081,25.324C-6.475,25.324 -11.063,25.57 -13.933,25.57C-14.834,25.57 -15.325,25.324 -15.325,24.833C-15.325,24.505 -15.08,24.095 -14.178,24.095C-13.112,24.095 -12.293,24.013 -11.638,23.849C-10.162,23.521 -9.753,22.21 -9.507,20.161C-9.179,17.211 -9.179,11.72 -9.179,5.327L-9.179,-6.966Z" style="fill:white;fill-rule:nonzero;"/>
        </g>
        <g transform="matrix(1,0,0,1,655.617,479.375)">
            <path d="M0,-1.557C0,-0.819 0.164,-0.574 0.655,-0.328C2.213,0.164 4.344,0.328 6.146,0.328C9.015,0.328 9.998,0.082 11.228,-0.819C13.44,-2.376 15.899,-5.409 15.899,-11.145C15.899,-20.98 9.179,-23.521 4.917,-23.521C3.114,-23.521 1.394,-23.439 0.655,-23.275C0.164,-23.111 0,-22.865 0,-22.291L0,-1.557ZM-9.179,-6.966C-9.179,-17.538 -9.179,-19.505 -9.261,-21.718C-9.425,-24.095 -10.08,-24.832 -12.375,-25.488C-12.949,-25.652 -14.178,-25.734 -15.243,-25.734C-15.981,-25.734 -16.473,-25.979 -16.473,-26.471C-16.473,-26.963 -15.899,-27.127 -14.834,-27.127C-11.063,-27.127 -6.475,-26.963 -4.999,-26.963C-2.541,-26.963 4.016,-27.127 6.229,-27.127C10.818,-27.127 16.063,-26.717 19.915,-24.177C21.964,-22.783 24.996,-19.259 24.996,-14.588C24.996,-9.425 22.046,-4.835 14.998,0.82C21.391,8.688 26.472,14.998 30.815,19.341C34.831,23.358 37.371,23.685 38.519,23.931C39.257,24.095 39.666,24.095 40.24,24.095C40.813,24.095 41.142,24.505 41.142,24.833C41.142,25.406 40.649,25.57 39.748,25.57L32.864,25.57C28.848,25.57 26.881,25.16 24.996,24.177C21.882,22.62 19.178,19.341 15.162,13.933C12.293,10.163 9.261,5.491 8.359,4.426C7.949,4.016 7.54,3.934 7.048,3.934L0.573,3.77C0.246,3.77 0,3.934 0,4.344L0,5.327C0,11.802 0.082,17.211 0.41,20.161C0.655,22.21 0.983,23.521 3.196,23.849C4.262,24.013 5.818,24.095 6.721,24.095C7.294,24.095 7.622,24.505 7.622,24.833C7.622,25.324 7.048,25.57 6.146,25.57C1.967,25.57 -4.016,25.324 -5.081,25.324C-6.475,25.324 -11.063,25.57 -13.933,25.57C-14.834,25.57 -15.325,25.324 -15.325,24.833C-15.325,24.505 -15.08,24.095 -14.178,24.095C-13.113,24.095 -12.293,24.013 -11.638,23.849C-10.162,23.521 -9.753,22.21 -9.507,20.161C-9.179,17.211 -9.179,11.72 -9.179,5.327L-9.179,-6.966Z" style="fill:white;fill-rule:nonzero;"/>
        </g>
        <g transform="matrix(1,0,0,1,719.134,472)">
            <path d="M0,11.555C0.328,11.555 0.41,11.391 0.328,11.145L-6.475,-6.557C-6.557,-6.803 -6.639,-7.213 -6.802,-7.213C-7.048,-7.213 -7.13,-6.803 -7.212,-6.557L-14.178,11.063C-14.342,11.391 -14.178,11.555 -13.933,11.555L0,11.555ZM-15.407,15.407C-15.817,15.407 -15.899,15.489 -16.063,15.899L-19.915,25.242C-20.652,26.963 -20.98,28.684 -20.98,29.503C-20.98,30.733 -20.325,31.47 -18.112,31.47L-17.047,31.47C-16.146,31.47 -15.981,31.798 -15.981,32.208C-15.981,32.782 -16.391,32.946 -17.129,32.946C-19.505,32.946 -22.865,32.7 -25.16,32.7C-25.897,32.7 -29.75,32.946 -33.52,32.946C-34.421,32.946 -34.831,32.782 -34.831,32.208C-34.831,31.798 -34.585,31.47 -34.011,31.47C-33.355,31.47 -32.536,31.388 -31.881,31.388C-28.603,30.896 -27.373,28.766 -25.897,25.242L-7.048,-18.604C-6.229,-20.571 -5.655,-21.391 -4.917,-21.391C-3.852,-21.391 -3.524,-20.735 -2.786,-19.178C-1.065,-15.326 10.982,13.194 15.571,23.766C18.358,30.077 20.407,30.978 21.718,31.224C22.783,31.388 23.604,31.47 24.423,31.47C25.078,31.47 25.406,31.716 25.406,32.208C25.406,32.782 24.996,32.946 22.292,32.946C19.751,32.946 14.506,32.946 8.441,32.782C7.13,32.7 6.311,32.7 6.311,32.208C6.311,31.798 6.475,31.552 7.212,31.47C7.704,31.388 8.195,30.733 7.868,29.913L2.295,15.899C2.131,15.489 1.885,15.407 1.558,15.407L-15.407,15.407Z" style="fill:white;fill-rule:nonzero;"/>
        </g>
        <g transform="matrix(1,0,0,1,772.324,456.264)">
            <path d="M0,44.256C7.376,44.256 9.916,42.781 11.146,40.65C11.72,39.585 12.211,38.437 12.457,37.454C12.621,36.716 12.785,36.306 13.276,36.306C13.851,36.306 14.014,36.798 14.014,38.437C14.014,40.732 13.112,45.239 12.621,46.961C12.211,48.19 11.72,48.763 10.408,48.763C-1.64,48.763 -13.851,48.436 -28.438,48.436C-29.258,48.436 -29.668,48.19 -29.668,47.698C-29.668,47.288 -29.586,46.879 -28.767,45.649C-18.604,30.324 -8.113,14.589 1.557,0.246L-12.048,0.246C-15.735,0.246 -19.997,0.246 -22.292,1.476C-24.669,2.787 -25.979,5.163 -26.144,6.802C-26.308,7.786 -26.636,8.032 -27.045,8.032C-27.537,8.032 -27.783,7.704 -27.783,6.884C-27.783,5.245 -26.718,-1.065 -26.308,-3.196C-26.226,-4.18 -25.898,-4.507 -25.488,-4.507C-24.833,-4.507 -24.423,-4.098 -22.62,-4.015C-15.735,-3.769 -12.293,-3.851 -9.343,-3.851L12.867,-3.851C13.604,-3.851 14.096,-3.606 14.096,-3.278C14.096,-2.704 13.933,-2.458 13.687,-1.967C3.688,13.687 -7.13,29.586 -17.293,44.256L0,44.256Z" style="fill:white;fill-rule:nonzero;"/>
        </g>
        <g transform="matrix(1,0,0,1,542.596,552.75)">
            <path d="M0,2.624C0,-12.785 -9.261,-22.292 -20.898,-22.292C-28.93,-22.292 -38.354,-18.03 -38.354,-0.818C-38.354,13.523 -30.159,24.833 -16.555,24.833C-11.474,24.833 0,22.457 0,2.624M-49.009,1.312C-49.009,-10.571 -40.649,-25.979 -18.768,-25.979C-0.573,-25.979 10.736,-15.899 10.736,0.083C10.736,16.064 -0.901,28.603 -19.505,28.603C-40.485,28.603 -49.009,13.687 -49.009,1.312" style="fill:white;fill-rule:nonzero;"/>
        </g>
        <g transform="matrix(1,0,0,1,574.398,548.162)">
            <path d="M0,12.047C0,20.981 0,25.405 1.557,26.717C2.786,27.782 5.572,28.193 11.146,28.193C14.997,28.193 17.784,28.11 19.587,26.226C20.488,25.323 21.226,23.357 21.39,22.046C21.472,21.39 21.636,20.981 22.209,20.981C22.701,20.981 22.865,21.718 22.865,22.537C22.865,23.357 22.373,28.52 21.8,30.568C21.308,32.126 20.98,32.454 17.21,32.454C12.047,32.454 7.867,32.372 4.261,32.208C0.655,32.126 -2.377,32.044 -5.327,32.044C-6.147,32.044 -7.704,32.126 -9.425,32.126C-11.146,32.208 -12.949,32.29 -14.425,32.29C-15.326,32.29 -15.817,32.044 -15.817,31.552C-15.817,31.225 -15.572,30.815 -14.67,30.815C-13.604,30.815 -12.785,30.733 -12.13,30.568C-10.654,30.241 -10.245,28.93 -9.999,26.881C-9.671,23.931 -9.671,18.44 -9.671,12.047L-9.671,-0.246C-9.671,-10.819 -9.671,-12.786 -9.753,-14.998C-9.917,-17.375 -10.572,-18.112 -12.867,-18.768C-13.441,-18.932 -14.343,-19.014 -15.244,-19.014C-16.063,-19.014 -16.474,-19.26 -16.474,-19.751C-16.474,-20.243 -15.981,-20.407 -14.916,-20.407C-11.556,-20.407 -6.967,-20.243 -5,-20.243C-3.278,-20.243 2.622,-20.407 5.408,-20.407C6.474,-20.407 6.966,-20.243 6.966,-19.751C6.966,-19.26 6.556,-19.014 5.654,-19.014C4.835,-19.014 3.688,-18.932 2.868,-18.768C0.901,-18.44 0.327,-17.457 0.163,-14.998C0,-12.786 0,-10.819 0,-0.246L0,12.047Z" style="fill:white;fill-rule:nonzero;"/>
        </g>
        <g transform="matrix(1,0,0,1,607.917,560.291)">
            <path d="M0,-12.375C0,-22.948 0,-24.915 -0.082,-27.127C-0.246,-29.504 -0.983,-30.323 -2.541,-30.815C-3.36,-31.061 -4.262,-31.143 -5.163,-31.143C-5.901,-31.143 -6.311,-31.307 -6.311,-31.962C-6.311,-32.372 -5.737,-32.536 -4.59,-32.536C-1.885,-32.536 3.032,-32.372 5.081,-32.372C6.884,-32.372 11.556,-32.536 14.342,-32.536C15.243,-32.536 15.817,-32.372 15.817,-31.962C15.817,-31.307 15.407,-31.143 14.67,-31.143C13.932,-31.143 13.358,-31.061 12.539,-30.897C10.572,-30.569 9.998,-29.586 9.834,-27.127C9.671,-24.915 9.671,-22.948 9.671,-12.375L9.671,-0.082C9.671,6.639 9.671,12.211 9.998,15.162C10.244,17.047 10.736,18.112 12.866,18.439C13.851,18.604 15.489,18.686 16.555,18.686C17.374,18.686 17.702,19.096 17.702,19.423C17.702,19.915 17.128,20.161 16.309,20.161C11.556,20.161 6.638,19.915 4.671,19.915C3.032,19.915 -1.885,20.161 -4.754,20.161C-5.655,20.161 -6.146,19.915 -6.146,19.423C-6.146,19.096 -5.901,18.686 -4.999,18.686C-3.935,18.686 -3.114,18.604 -2.459,18.439C-0.983,18.112 -0.574,17.129 -0.328,15.08C0,12.211 0,6.639 0,-0.082L0,-12.375Z" style="fill:white;fill-rule:nonzero;"/>
        </g>
        <g transform="matrix(1,0,0,1,632.423,574.551)">
            <path d="M0,-39.994C-1.639,-43.847 -2.704,-44.501 -5.327,-45.158C-6.393,-45.403 -7.54,-45.403 -8.113,-45.403C-8.769,-45.403 -8.933,-45.731 -8.933,-46.14C-8.933,-46.714 -8.195,-46.796 -7.13,-46.796C-3.278,-46.796 0.819,-46.632 3.36,-46.632C5.163,-46.632 8.934,-46.796 12.539,-46.796C13.44,-46.796 14.261,-46.632 14.261,-46.14C14.261,-45.649 13.769,-45.403 13.113,-45.403C11.966,-45.403 10.9,-45.321 10.326,-44.911C9.835,-44.583 9.589,-44.173 9.589,-43.518C9.589,-42.617 10.244,-40.732 11.229,-38.273L23.357,-7.048L23.604,-7.048C26.718,-14.26 35.979,-36.717 37.699,-41.306C38.027,-42.207 38.355,-43.272 38.355,-43.847C38.355,-44.583 38.027,-44.829 37.372,-45.076C36.552,-45.321 35.404,-45.403 34.503,-45.403C33.848,-45.403 33.274,-45.649 33.274,-46.14C33.274,-46.632 33.93,-46.796 35.323,-46.796C38.929,-46.796 42.125,-46.632 43.026,-46.632C44.256,-46.632 47.616,-46.796 49.829,-46.796C50.73,-46.796 51.304,-46.632 51.304,-46.14C51.304,-45.649 50.895,-45.403 50.156,-45.403C49.419,-45.403 47.862,-45.485 46.633,-44.583C45.731,-43.929 44.748,-42.863 42.862,-38.437C39.994,-31.88 38.109,-28.111 34.176,-19.587C29.586,-9.425 26.226,-1.803 24.587,1.721C22.784,5.737 22.128,6.802 21.145,6.802C20.161,6.802 19.588,5.901 18.194,2.623L0,-39.994Z" style="fill:white;fill-rule:nonzero;"/>
        </g>
        <g transform="matrix(1,0,0,1,688.974,559.881)">
            <path d="M0,-11.965C0,-22.538 0,-24.505 -0.082,-26.717C-0.246,-29.094 -0.901,-29.831 -3.196,-30.487C-3.771,-30.651 -4.999,-30.733 -6.064,-30.733C-6.803,-30.733 -7.294,-30.979 -7.294,-31.47C-7.294,-31.962 -6.721,-32.126 -5.655,-32.126C-1.885,-32.126 2.704,-31.962 4.753,-31.962C7.048,-31.962 23.029,-31.88 24.422,-31.962C25.733,-32.044 26.881,-32.29 27.455,-32.372C27.864,-32.454 28.274,-32.7 28.602,-32.7C29.012,-32.7 29.094,-32.372 29.094,-32.044C29.094,-31.552 28.684,-30.733 28.521,-27.537C28.438,-26.799 28.274,-23.767 28.11,-22.948C28.028,-22.62 27.864,-21.8 27.291,-21.8C26.799,-21.8 26.717,-22.129 26.717,-22.702C26.717,-23.194 26.635,-24.423 26.226,-25.243C25.651,-26.471 25.078,-27.455 21.472,-27.783C20.242,-27.947 11.638,-28.111 10.162,-28.111C9.834,-28.111 9.671,-27.865 9.671,-27.455L9.671,-10.244C9.671,-9.834 9.752,-9.507 10.162,-9.507C11.802,-9.507 21.145,-9.507 22.783,-9.67C24.504,-9.834 25.569,-9.998 26.226,-10.736C26.799,-11.228 27.045,-11.638 27.373,-11.638C27.7,-11.638 27.946,-11.31 27.946,-10.9C27.946,-10.49 27.782,-9.343 27.373,-5.819C27.209,-4.425 27.045,-1.639 27.045,-1.148C27.045,-0.573 26.963,0.41 26.308,0.41C25.815,0.41 25.651,0.164 25.651,-0.163C25.569,-0.902 25.569,-1.803 25.406,-2.704C24.996,-4.098 24.095,-5.163 21.39,-5.408C20.079,-5.572 11.883,-5.736 10.08,-5.736C9.752,-5.736 9.671,-5.408 9.671,-4.999L9.671,0.574C9.671,2.951 9.589,8.851 9.671,10.9C9.834,15.653 12.047,16.719 19.423,16.719C21.308,16.719 24.341,16.638 26.226,15.817C28.028,14.998 28.848,13.522 29.34,10.654C29.504,9.917 29.667,9.589 30.159,9.589C30.732,9.589 30.814,10.49 30.814,11.228C30.814,12.785 30.241,17.539 29.831,18.931C29.34,20.735 28.684,20.735 25.979,20.735C20.57,20.735 16.227,20.653 12.703,20.489C9.179,20.407 6.475,20.325 4.344,20.325C3.523,20.325 1.967,20.407 0.246,20.407C-1.476,20.489 -3.278,20.571 -4.754,20.571C-5.655,20.571 -6.146,20.325 -6.146,19.833C-6.146,19.506 -5.901,19.096 -4.999,19.096C-3.935,19.096 -3.114,19.014 -2.459,18.849C-0.983,18.522 -0.574,17.211 -0.328,15.162C0,12.212 0,6.721 0,0.328L0,-11.965Z" style="fill:white;fill-rule:nonzero;"/>
        </g>
        <g transform="matrix(1,0,0,1,732.494,560.291)">
            <path d="M0,-12.375C0,-22.948 0,-24.915 -0.082,-27.127C-0.246,-29.504 -0.983,-30.323 -2.541,-30.815C-3.36,-31.061 -4.262,-31.143 -5.163,-31.143C-5.901,-31.143 -6.311,-31.307 -6.311,-31.962C-6.311,-32.372 -5.737,-32.536 -4.59,-32.536C-1.885,-32.536 3.032,-32.372 5.081,-32.372C6.884,-32.372 11.556,-32.536 14.342,-32.536C15.243,-32.536 15.817,-32.372 15.817,-31.962C15.817,-31.307 15.407,-31.143 14.67,-31.143C13.932,-31.143 13.358,-31.061 12.539,-30.897C10.572,-30.569 9.998,-29.586 9.834,-27.127C9.671,-24.915 9.671,-22.948 9.671,-12.375L9.671,-0.082C9.671,6.639 9.671,12.211 9.998,15.162C10.244,17.047 10.736,18.112 12.866,18.439C13.851,18.604 15.489,18.686 16.555,18.686C17.374,18.686 17.702,19.096 17.702,19.423C17.702,19.915 17.128,20.161 16.309,20.161C11.556,20.161 6.638,19.915 4.671,19.915C3.032,19.915 -1.885,20.161 -4.754,20.161C-5.655,20.161 -6.146,19.915 -6.146,19.423C-6.146,19.096 -5.901,18.686 -4.999,18.686C-3.935,18.686 -3.114,18.604 -2.459,18.439C-0.983,18.112 -0.574,17.129 -0.328,15.08C0,12.211 0,6.639 0,-0.082L0,-12.375Z" style="fill:white;fill-rule:nonzero;"/>
        </g>
        <g transform="matrix(1,0,0,1,770.112,554.882)">
            <path d="M0,-1.557C0,-0.82 0.164,-0.574 0.655,-0.328C2.213,0.164 4.344,0.328 6.146,0.328C9.015,0.328 9.998,0.082 11.228,-0.82C13.44,-2.377 15.899,-5.41 15.899,-11.146C15.899,-20.981 9.179,-23.521 4.917,-23.521C3.114,-23.521 1.394,-23.44 0.655,-23.276C0.164,-23.112 0,-22.866 0,-22.293L0,-1.557ZM-9.179,-6.966C-9.179,-17.539 -9.179,-19.506 -9.261,-21.719C-9.425,-24.096 -10.08,-24.832 -12.375,-25.489C-12.949,-25.652 -14.178,-25.734 -15.243,-25.734C-15.981,-25.734 -16.473,-25.98 -16.473,-26.472C-16.473,-26.963 -15.899,-27.127 -14.834,-27.127C-11.063,-27.127 -6.475,-26.963 -4.999,-26.963C-2.541,-26.963 4.016,-27.127 6.229,-27.127C10.818,-27.127 16.063,-26.718 19.915,-24.178C21.964,-22.784 24.996,-19.261 24.996,-14.589C24.996,-9.425 22.046,-4.835 14.998,0.819C21.391,8.687 26.472,14.998 30.815,19.341C34.831,23.357 37.371,23.685 38.519,23.93C39.257,24.094 39.666,24.094 40.24,24.094C40.813,24.094 41.142,24.505 41.142,24.832C41.142,25.406 40.649,25.57 39.748,25.57L32.864,25.57C28.848,25.57 26.881,25.16 24.996,24.176C21.882,22.62 19.178,19.341 15.162,13.932C12.293,10.162 9.261,5.491 8.359,4.425C7.949,4.015 7.54,3.933 7.048,3.933L0.573,3.77C0.246,3.77 0,3.933 0,4.343L0,5.327C0,11.801 0.082,17.211 0.41,20.161C0.655,22.21 0.983,23.521 3.196,23.848C4.262,24.012 5.818,24.094 6.721,24.094C7.294,24.094 7.622,24.505 7.622,24.832C7.622,25.324 7.048,25.57 6.146,25.57C1.967,25.57 -4.016,25.324 -5.081,25.324C-6.475,25.324 -11.063,25.57 -13.933,25.57C-14.834,25.57 -15.325,25.324 -15.325,24.832C-15.325,24.505 -15.08,24.094 -14.178,24.094C-13.113,24.094 -12.293,24.012 -11.638,23.848C-10.162,23.521 -9.753,22.21 -9.507,20.161C-9.179,17.211 -9.179,11.719 -9.179,5.327L-9.179,-6.966Z" style="fill:white;fill-rule:nonzero;"/>
        </g>
        <g transform="matrix(1,0,0,1,833.628,547.507)">
            <path d="M0,11.555C0.328,11.555 0.41,11.391 0.328,11.146L-6.475,-6.558C-6.557,-6.803 -6.639,-7.213 -6.802,-7.213C-7.048,-7.213 -7.13,-6.803 -7.212,-6.558L-14.178,11.064C-14.342,11.391 -14.178,11.555 -13.933,11.555L0,11.555ZM-15.407,15.407C-15.817,15.407 -15.899,15.489 -16.063,15.899L-19.915,25.242C-20.652,26.962 -20.98,28.684 -20.98,29.503C-20.98,30.733 -20.325,31.47 -18.112,31.47L-17.047,31.47C-16.146,31.47 -15.981,31.798 -15.981,32.207C-15.981,32.782 -16.391,32.946 -17.129,32.946C-19.505,32.946 -22.865,32.7 -25.16,32.7C-25.897,32.7 -29.75,32.946 -33.52,32.946C-34.421,32.946 -34.831,32.782 -34.831,32.207C-34.831,31.798 -34.585,31.47 -34.011,31.47C-33.355,31.47 -32.536,31.388 -31.881,31.388C-28.603,30.897 -27.373,28.766 -25.897,25.242L-7.048,-18.604C-6.229,-20.571 -5.655,-21.391 -4.917,-21.391C-3.852,-21.391 -3.524,-20.735 -2.786,-19.178C-1.065,-15.326 10.982,13.195 15.571,23.767C18.358,30.076 20.407,30.979 21.718,31.224C22.783,31.388 23.604,31.47 24.423,31.47C25.078,31.47 25.406,31.716 25.406,32.207C25.406,32.782 24.996,32.946 22.292,32.946C19.751,32.946 14.506,32.946 8.441,32.782C7.13,32.7 6.311,32.7 6.311,32.207C6.311,31.798 6.475,31.552 7.212,31.47C7.704,31.388 8.195,30.733 7.868,29.913L2.295,15.899C2.131,15.489 1.885,15.407 1.558,15.407L-15.407,15.407Z" style="fill:white;fill-rule:nonzero;"/>
        </g>
        <g>
            <g transform="matrix(27.8422,0,0,27.8422,496.846,626.043)">
                <path d="M0.49,-0.153L0.192,-0.153L0.138,0L0.016,0L0.276,-0.695L0.407,-0.695L0.666,0L0.544,0L0.49,-0.153ZM0.458,-0.241L0.341,-0.571L0.224,-0.241L0.458,-0.241Z" style="fill:white;fill-rule:nonzero;"/>
            </g>
            <g transform="matrix(27.8422,0,0,27.8422,539.172,626.043)">
                <path d="M0.675,-0.354C0.675,-0.283 0.661,-0.221 0.632,-0.168C0.603,-0.115 0.56,-0.073 0.505,-0.044C0.449,-0.015 0.382,0 0.305,0L0.069,0L0.069,-0.706L0.305,-0.706C0.382,-0.706 0.449,-0.692 0.505,-0.663C0.56,-0.634 0.603,-0.593 0.632,-0.54C0.661,-0.487 0.675,-0.425 0.675,-0.354ZM0.296,-0.103C0.381,-0.103 0.446,-0.125 0.491,-0.169C0.536,-0.213 0.559,-0.275 0.559,-0.354C0.559,-0.433 0.536,-0.495 0.491,-0.539C0.446,-0.583 0.381,-0.605 0.296,-0.605L0.183,-0.605L0.183,-0.103L0.296,-0.103Z" style="fill:white;fill-rule:nonzero;"/>
            </g>
            <g transform="matrix(27.8422,0,0,27.8422,582.583,626.043)">
                <path d="M0.14,-0.706L0.343,-0.122L0.547,-0.706L0.671,-0.706L0.416,0L0.27,0L0.016,-0.706L0.14,-0.706Z" style="fill:white;fill-rule:nonzero;"/>
            </g>
            <g transform="matrix(27.8422,0,0,27.8422,626.376,626.043)">
                <path d="M0.396,-0.715C0.461,-0.715 0.521,-0.7 0.574,-0.669C0.627,-0.638 0.668,-0.596 0.699,-0.541C0.729,-0.486 0.744,-0.423 0.744,-0.354C0.744,-0.285 0.729,-0.223 0.699,-0.168C0.668,-0.113 0.627,-0.07 0.574,-0.039C0.521,-0.008 0.461,0.008 0.396,0.008C0.33,0.008 0.271,-0.008 0.218,-0.039C0.165,-0.07 0.123,-0.113 0.092,-0.168C0.061,-0.223 0.046,-0.285 0.046,-0.354C0.046,-0.423 0.061,-0.486 0.092,-0.541C0.123,-0.596 0.165,-0.638 0.218,-0.669C0.271,-0.7 0.33,-0.715 0.396,-0.715ZM0.396,-0.609C0.351,-0.609 0.31,-0.599 0.275,-0.578C0.24,-0.557 0.212,-0.528 0.193,-0.489C0.173,-0.45 0.163,-0.405 0.163,-0.354C0.163,-0.303 0.173,-0.258 0.193,-0.219C0.212,-0.18 0.24,-0.151 0.275,-0.13C0.31,-0.109 0.351,-0.099 0.396,-0.099C0.441,-0.099 0.481,-0.109 0.516,-0.13C0.551,-0.151 0.578,-0.18 0.598,-0.219C0.617,-0.258 0.627,-0.303 0.627,-0.354C0.627,-0.405 0.617,-0.45 0.598,-0.489C0.578,-0.528 0.551,-0.557 0.516,-0.578C0.481,-0.599 0.441,-0.609 0.396,-0.609Z" style="fill:white;fill-rule:nonzero;"/>
            </g>
            <g transform="matrix(27.8422,0,0,27.8422,674.176,626.043)">
                <path d="M0.384,-0.713C0.471,-0.713 0.543,-0.691 0.6,-0.647C0.657,-0.603 0.696,-0.543 0.716,-0.468L0.595,-0.468C0.578,-0.511 0.552,-0.545 0.516,-0.57C0.479,-0.595 0.435,-0.607 0.382,-0.607C0.34,-0.607 0.303,-0.597 0.27,-0.576C0.237,-0.555 0.211,-0.526 0.192,-0.488C0.173,-0.449 0.163,-0.404 0.163,-0.353C0.163,-0.302 0.173,-0.258 0.192,-0.22C0.211,-0.181 0.237,-0.152 0.27,-0.131C0.303,-0.11 0.34,-0.1 0.382,-0.1C0.435,-0.1 0.479,-0.113 0.516,-0.138C0.552,-0.163 0.578,-0.196 0.595,-0.238L0.716,-0.238C0.696,-0.163 0.657,-0.103 0.6,-0.06C0.543,-0.016 0.471,0.006 0.384,0.006C0.317,0.006 0.258,-0.009 0.207,-0.04C0.156,-0.07 0.116,-0.112 0.088,-0.167C0.06,-0.221 0.046,-0.283 0.046,-0.353C0.046,-0.423 0.06,-0.485 0.088,-0.54C0.116,-0.594 0.156,-0.636 0.207,-0.667C0.258,-0.698 0.317,-0.713 0.384,-0.713Z" style="fill:white;fill-rule:nonzero;"/>
            </g>
            <g transform="matrix(27.8422,0,0,27.8422,720.946,626.043)">
                <path d="M0.49,-0.153L0.192,-0.153L0.138,0L0.016,0L0.276,-0.695L0.407,-0.695L0.666,0L0.544,0L0.49,-0.153ZM0.458,-0.241L0.341,-0.571L0.224,-0.241L0.458,-0.241Z" style="fill:white;fill-rule:nonzero;"/>
            </g>
            <g transform="matrix(27.8422,0,0,27.8422,762.646,626.043)">
                <path d="M0.384,-0.713C0.471,-0.713 0.543,-0.691 0.6,-0.647C0.657,-0.603 0.696,-0.543 0.716,-0.468L0.595,-0.468C0.578,-0.511 0.552,-0.545 0.516,-0.57C0.479,-0.595 0.435,-0.607 0.382,-0.607C0.34,-0.607 0.303,-0.597 0.27,-0.576C0.237,-0.555 0.211,-0.526 0.192,-0.488C0.173,-0.449 0.163,-0.404 0.163,-0.353C0.163,-0.302 0.173,-0.258 0.192,-0.22C0.211,-0.181 0.237,-0.152 0.27,-0.131C0.303,-0.11 0.34,-0.1 0.382,-0.1C0.435,-0.1 0.479,-0.113 0.516,-0.138C0.552,-0.163 0.578,-0.196 0.595,-0.238L0.716,-0.238C0.696,-0.163 0.657,-0.103 0.6,-0.06C0.543,-0.016 0.471,0.006 0.384,0.006C0.317,0.006 0.258,-0.009 0.207,-0.04C0.156,-0.07 0.116,-0.112 0.088,-0.167C0.06,-0.221 0.046,-0.283 0.046,-0.353C0.046,-0.423 0.06,-0.485 0.088,-0.54C0.116,-0.594 0.156,-0.636 0.207,-0.667C0.258,-0.698 0.317,-0.713 0.384,-0.713Z" style="fill:white;fill-rule:nonzero;"/>
            </g>
            <g transform="matrix(27.8422,0,0,27.8422,809.778,626.043)">
                <rect x="0.069" y="-0.706" width="0.114" height="0.706" style="fill:white;fill-rule:nonzero;"/>
            </g>
            <g transform="matrix(27.8422,0,0,27.8422,840.671,626.043)">
                <path d="M0.49,-0.153L0.192,-0.153L0.138,0L0.016,0L0.276,-0.695L0.407,-0.695L0.666,0L0.544,0L0.49,-0.153ZM0.458,-0.241L0.341,-0.571L0.224,-0.241L0.458,-0.241Z" style="fill:white;fill-rule:nonzero;"/>
            </g>
        </g>
    </g>
</svg>
